<svg xmlns="http://www.w3.org/2000/svg" xmlns:xlink="http://www.w3.org/1999/xlink" width="1207.11" height="1106.12"><g transform="translate(-71.6780350652945 -98.99999999999989)"><path d="M0 0h1500v1500H0z" fill="#fff"/><path d="M640 126a6 6 0 0 1 6-6h601.98a6 6 0 0 1 6 6v148a6 6 0 0 1-6 6H646a6 6 0 0 1-6-6z" stroke="#282c33" stroke-width="2" fill="#fff"/><path d="M950.83 161v118M641 161.33h611.98" stroke="#282c33" stroke-width="2" stroke-linecap="round" fill="none"/><path d="M676.46 126a6 6 0 0 1 6-6h529.07a6 6 0 0 1 6 6v30.67a6 6 0 0 1-6 6H682.46a6 6 0 0 1-6-6z" fill="none"/><use xlink:href="#a" transform="matrix(1,0,0,1,676.4552568102351,119.99999999999997) translate(213.25 25.1)"/><path d="M640 168.67a6 6 0 0 1 6-6h295a6 6 0 0 1 6 6V274a6 6 0 0 1-6 6H646a6 6 0 0 1-6-6z" fill="none"/><use xlink:href="#b" transform="matrix(1,0,0,1,640,162.6666666666667) translate(14.125 51.8)"/><use xlink:href="#c" transform="matrix(1,0,0,1,640,162.6666666666667) translate(74.075 51.8)"/><use xlink:href="#d" transform="matrix(1,0,0,1,640,162.6666666666667) translate(93.025 51.8)"/><use xlink:href="#e" transform="matrix(1,0,0,1,640,162.6666666666667) translate(183.925 51.8)"/><use xlink:href="#f" transform="matrix(1,0,0,1,640,162.6666666666667) translate(212.875 51.8)"/><use xlink:href="#g" transform="matrix(1,0,0,1,640,162.6666666666667) translate(272.875 51.8)"/><use xlink:href="#h" transform="matrix(1,0,0,1,640,162.6666666666667) translate(16.599999999999994 73.4)"/><use xlink:href="#i" transform="matrix(1,0,0,1,640,162.6666666666667) translate(60.599999999999994 73.4)"/><use xlink:href="#j" transform="matrix(1,0,0,1,640,162.6666666666667) translate(79.55 73.4)"/><use xlink:href="#e" transform="matrix(1,0,0,1,640,162.6666666666667) translate(113.5 73.4)"/><use xlink:href="#k" transform="matrix(1,0,0,1,640,162.6666666666667) translate(142.45 73.4)"/><use xlink:href="#l" transform="matrix(1,0,0,1,640,162.6666666666667) translate(221.4 73.4)"/><path d="M645.28 326a6 6 0 0 1 6-6h600.5a6 6 0 0 1 6 6v294.14a6 6 0 0 1-6 6h-600.5a6 6 0 0 1-6-6z" stroke="#282c33" stroke-width="2" fill="#fff"/><path d="M955.36 397.53v227.6M646.28 399.08h610.5" stroke="#282c33" stroke-width="2" stroke-linecap="round" fill="none"/><path d="M681.64 326a6 6 0 0 1 6-6h527.78a6 6 0 0 1 6 6v69.64a6 6 0 0 1-6 6H687.64a6 6 0 0 1-6-6z" fill="none"/><use xlink:href="#m" transform="matrix(1,0,0,1,681.6453568009783,320) translate(232.575 44.6)"/><path d="M645.28 407.64a6 6 0 0 1 6-6h301.8a6 6 0 0 1 6 6v212.5a6 6 0 0 1-6 6h-301.8a6 6 0 0 1-6-6z" fill="none"/><use xlink:href="#n" transform="matrix(1,0,0,1,645.2777880859383,401.6361469693082) translate(43.125 72.89999999999999)"/><use xlink:href="#o" transform="matrix(1,0,0,1,645.2777880859383,401.6361469693082) translate(153.025 72.89999999999999)"/><use xlink:href="#p" transform="matrix(1,0,0,1,645.2777880859383,401.6361469693082) translate(178.025 72.89999999999999)"/><use xlink:href="#q" transform="matrix(1,0,0,1,645.2777880859383,401.6361469693082) translate(205.975 72.89999999999999)"/><use xlink:href="#r" transform="matrix(1,0,0,1,645.2777880859383,401.6361469693082) translate(5.699999999999989 94.5)"/><use xlink:href="#s" transform="matrix(1,0,0,1,645.2777880859383,401.6361469693082) translate(97.6 94.5)"/><use xlink:href="#t" transform="matrix(1,0,0,1,645.2777880859383,401.6361469693082) translate(138.55 94.5)"/><use xlink:href="#u" transform="matrix(1,0,0,1,645.2777880859383,401.6361469693082) translate(157.5 94.5)"/><use xlink:href="#v" transform="matrix(1,0,0,1,645.2777880859383,401.6361469693082) translate(284.35 94.5)"/><use xlink:href="#w" transform="matrix(1,0,0,1,645.2777880859383,401.6361469693082) translate(37.69999999999999 116.1)"/><use xlink:href="#x" transform="matrix(1,0,0,1,645.2777880859383,401.6361469693082) translate(119.55 116.1)"/><use xlink:href="#y" transform="matrix(1,0,0,1,645.2777880859383,401.6361469693082) translate(0.09999999999999432 137.70000000000002)"/><use xlink:href="#z" transform="matrix(1,0,0,1,645.2777880859383,401.6361469693082) translate(141.04999999999998 137.70000000000002)"/><use xlink:href="#A" transform="matrix(1,0,0,1,645.2777880859383,401.6361469693082) translate(74.80000000000001 159.3)"/><path d="M959.08 407.64a6 6 0 0 1 6-6h284.78a6 6 0 0 1 6 6v212.5a6 6 0 0 1-6 6H965.08a6 6 0 0 1-6-6z" fill="none"/><use xlink:href="#B" transform="matrix(1,0,0,1,959.0813883735641,401.63614696930813) translate(90.75 116.10000000000001)"/><path d="M92.68 126a6 6 0 0 1 6-6h513.94a6 6 0 0 1 6 6v148a6 6 0 0 1-6 6H98.68a6 6 0 0 1-6-6z" stroke="#282c33" stroke-width="2" fill="#fff"/><path d="M358.94 161v118M93.68 161.33h523.94" stroke="#282c33" stroke-width="2" stroke-linecap="round" fill="none"/><path d="M123.9 126a6 6 0 0 1 6-6h451.5a6 6 0 0 1 6 6v30.67a6 6 0 0 1-6 6H129.9a6 6 0 0 1-6-6z" fill="none"/><use xlink:href="#C" transform="matrix(1,0,0,1,123.90613610829266,119.9999999999998) translate(210.025 25.1)"/><path d="M92.68 168.67a6 6 0 0 1 6-6h250.97a6 6 0 0 1 6 6V274a6 6 0 0 1-6 6H98.68a6 6 0 0 1-6-6z" fill="none"/><use xlink:href="#D" transform="matrix(1,0,0,1,92.67803506529452,162.66666666666654) translate(21.69999999999999 51.8)"/><use xlink:href="#p" transform="matrix(1,0,0,1,92.67803506529452,162.66666666666654) translate(91.5 51.8)"/><use xlink:href="#E" transform="matrix(1,0,0,1,92.67803506529452,162.66666666666654) translate(119.45 51.8)"/><use xlink:href="#o" transform="matrix(1,0,0,1,92.67803506529452,162.66666666666654) translate(193.35000000000002 51.8)"/><use xlink:href="#F" transform="matrix(1,0,0,1,92.67803506529452,162.66666666666654) translate(218.35000000000002 51.8)"/><use xlink:href="#G" transform="matrix(1,0,0,1,92.67803506529452,162.66666666666654) translate(81.1 73.4)"/><path d="M92.68 324.22a6 6 0 0 1 6-6h510.04a6 6 0 0 1 6 6v148a6 6 0 0 1-6 6H98.68a6 6 0 0 1-6-6z" stroke="#282c33" stroke-width="2" fill="#fff"/><path d="M356.96 359.22v118M93.68 359.55h520.04" stroke="#282c33" stroke-width="2" stroke-linecap="round" fill="none"/><path d="M123.67 324.22a6 6 0 0 1 6-6h448.06a6 6 0 0 1 6 6v30.67a6 6 0 0 1-6 6H129.67a6 6 0 0 1-6-6z" fill="none"/><use xlink:href="#H" transform="matrix(1,0,0,1,123.67441360929053,318.2204902442479) translate(211.025 25.1)"/><path d="M92.68 366.9a6 6 0 0 1 6-6H347.7a6 6 0 0 1 6 6V472.2a6 6 0 0 1-6 6H98.68a6 6 0 0 1-6-6z" fill="none"/><use xlink:href="#I" transform="matrix(1,0,0,1,92.67803506529472,360.88715691091465) translate(26.150000000000006 62.6)"/><use xlink:href="#t" transform="matrix(1,0,0,1,92.67803506529472,360.88715691091465) translate(93.10000000000001 62.6)"/><use xlink:href="#J" transform="matrix(1,0,0,1,92.67803506529472,360.88715691091465) translate(112.05000000000001 62.6)"/><use xlink:href="#K" transform="matrix(1,0,0,1,92.67803506529472,360.88715691091465) translate(177.95000000000002 62.6)"/><use xlink:href="#L" transform="matrix(1,0,0,1,92.67803506529472,360.88715691091465) translate(206.9 62.6)"/><path d="M92.68 522.44a6 6 0 0 1 6-6h510.04a6 6 0 0 1 6 6V774a6 6 0 0 1-6 6H98.68a6 6 0 0 1-6-6z" stroke="#282c33" stroke-width="2" fill="#fff"/><path d="M356.96 583.33V779M93.68 584.53h520.04" stroke="#282c33" stroke-width="2" stroke-linecap="round" fill="none"/><path d="M123.67 522.44a6 6 0 0 1 6-6h448.06a6 6 0 0 1 6 6v58.28a6 6 0 0 1-6 6H129.67a6 6 0 0 1-6-6z" fill="none"/><g><use xlink:href="#M" transform="matrix(1,0,0,1,123.67441360929055,516.4409804884958) translate(192.525 39.1)"/></g><path d="M92.68 592.72a6 6 0 0 1 6-6H347.7a6 6 0 0 1 6 6V774a6 6 0 0 1-6 6H98.68a6 6 0 0 1-6-6z" fill="none"/><g><use xlink:href="#N" transform="matrix(1,0,0,1,92.6780350652945,586.7233856915634) translate(27.049999999999997 46.6)"/><use xlink:href="#O" transform="matrix(1,0,0,1,92.6780350652945,586.7233856915634) translate(92 46.6)"/><use xlink:href="#f" transform="matrix(1,0,0,1,92.6780350652945,586.7233856915634) translate(110.95 46.6)"/><use xlink:href="#P" transform="matrix(1,0,0,1,92.6780350652945,586.7233856915634) translate(170.95 46.6)"/><use xlink:href="#Q" transform="matrix(1,0,0,1,92.6780350652945,586.7233856915634) translate(195.95 46.6)"/><use xlink:href="#R" transform="matrix(1,0,0,1,92.6780350652945,586.7233856915634) translate(94.025 68.2)"/><use xlink:href="#S" transform="matrix(1,0,0,1,92.6780350652945,586.7233856915634) translate(30.625 89.80000000000001)"/><use xlink:href="#O" transform="matrix(1,0,0,1,92.6780350652945,586.7233856915634) translate(129.47500000000002 89.80000000000001)"/><use xlink:href="#T" transform="matrix(1,0,0,1,92.6780350652945,586.7233856915634) translate(148.425 89.80000000000001)"/><use xlink:href="#U" transform="matrix(1,0,0,1,92.6780350652945,586.7233856915634) translate(207.425 89.80000000000001)"/><use xlink:href="#V" transform="matrix(1,0,0,1,92.6780350652945,586.7233856915634) translate(30.650000000000006 111.40000000000002)"/><use xlink:href="#W" transform="matrix(1,0,0,1,92.6780350652945,586.7233856915634) translate(111.60000000000001 111.40000000000002)"/><use xlink:href="#X" transform="matrix(1,0,0,1,92.6780350652945,586.7233856915634) translate(154.5 111.40000000000002)"/><use xlink:href="#Y" transform="matrix(1,0,0,1,92.6780350652945,586.7233856915634) translate(169.5 111.40000000000002)"/><use xlink:href="#N" transform="matrix(1,0,0,1,92.6780350652945,586.7233856915634) translate(34.14999999999999 133)"/><use xlink:href="#Z" transform="matrix(1,0,0,1,92.6780350652945,586.7233856915634) translate(99.1 133)"/><use xlink:href="#aa" transform="matrix(1,0,0,1,92.6780350652945,586.7233856915634) translate(127.05 133)"/><use xlink:href="#ab" transform="matrix(1,0,0,1,92.6780350652945,586.7233856915634) translate(15.625 154.6)"/><use xlink:href="#Z" transform="matrix(1,0,0,1,92.6780350652945,586.7233856915634) translate(41.625 154.6)"/><use xlink:href="#ac" transform="matrix(1,0,0,1,92.6780350652945,586.7233856915634) translate(69.575 154.6)"/><use xlink:href="#e" transform="matrix(1,0,0,1,92.6780350652945,586.7233856915634) translate(143.47500000000002 154.6)"/><use xlink:href="#ad" transform="matrix(1,0,0,1,92.6780350652945,586.7233856915634) translate(172.425 154.6)"/></g><path d="M353.7 592.72a6 6 0 0 1 6-6h249.02a6 6 0 0 1 6 6V774a6 6 0 0 1-6 6H359.7a6 6 0 0 1-6-6z" fill="none"/><g><use xlink:href="#ae" transform="matrix(1,0,0,1,353.70017017262796,586.7233856915634) translate(109.025 89.80000000000001)"/><use xlink:href="#af" transform="matrix(1,0,0,1,353.70017017262796,586.7233856915634) translate(111.525 111.4)"/></g><path d="M647.3 660.1a6 6 0 0 1 6-6h598.48a6 6 0 0 1 6 6V1014a6 6 0 0 1-6 6H653.3a6 6 0 0 1-6-6z" stroke="#282c33" stroke-width="2" fill="#fff"/><g><path d="M956.36 746.58V1019" stroke="#282c33" stroke-width="2" stroke-linecap="round" fill="none"/></g><path d="M648.3 748.63h608.48" stroke="#282c33" stroke-width="2" stroke-linecap="round" fill="none"/><path d="M683.55 660.1a6 6 0 0 1 6-6h526a6 6 0 0 1 6 6v85.57a6 6 0 0 1-6 6h-526a6 6 0 0 1-6-6z" fill="none"/><g><use xlink:href="#ag" transform="matrix(1,0,0,1,683.5523088176875,654.1014332131376) translate(243.55 52.6)"/></g><path d="M647.3 757.67a6 6 0 0 1 6-6h293.25a6 6 0 0 1 6 6V1014a6 6 0 0 1-6 6H653.3a6 6 0 0 1-6-6z" fill="none"/><g><use xlink:href="#ah" transform="matrix(1,0,0,1,647.3051124890842,751.6743843563008) translate(0.700000000000017 62.50000000000001)"/><use xlink:href="#ai" transform="matrix(1,0,0,1,647.3051124890842,751.6743843563008) translate(67.55000000000001 62.50000000000001)"/><use xlink:href="#aj" transform="matrix(1,0,0,1,647.3051124890842,751.6743843563008) translate(134.45000000000002 62.50000000000001)"/><use xlink:href="#ak" transform="matrix(1,0,0,1,647.3051124890842,751.6743843563008) translate(232.4 62.50000000000001)"/><use xlink:href="#al" transform="matrix(1,0,0,1,647.3051124890842,751.6743843563008) translate(251.35 62.50000000000001)"/><use xlink:href="#K" transform="matrix(1,0,0,1,647.3051124890842,751.6743843563008) translate(108.57499999999999 84.10000000000002)"/><use xlink:href="#am" transform="matrix(1,0,0,1,647.3051124890842,751.6743843563008) translate(137.52499999999998 84.10000000000002)"/><use xlink:href="#ah" transform="matrix(1,0,0,1,647.3051124890842,751.6743843563008) translate(12.700000000000017 105.70000000000002)"/><use xlink:href="#an" transform="matrix(1,0,0,1,647.3051124890842,751.6743843563008) translate(79.55000000000001 105.70000000000002)"/><use xlink:href="#o" transform="matrix(1,0,0,1,647.3051124890842,751.6743843563008) translate(148.4 105.70000000000002)"/><use xlink:href="#ao" transform="matrix(1,0,0,1,647.3051124890842,751.6743843563008) translate(173.4 105.70000000000002)"/><use xlink:href="#ap" transform="matrix(1,0,0,1,647.3051124890842,751.6743843563008) translate(252.35 105.70000000000002)"/><use xlink:href="#aq" transform="matrix(1,0,0,1,647.3051124890842,751.6743843563008) translate(125.55 127.30000000000003)"/><use xlink:href="#ar" transform="matrix(1,0,0,1,647.3051124890842,751.6743843563008) translate(17.125 148.9)"/><use xlink:href="#as" transform="matrix(1,0,0,1,647.3051124890842,751.6743843563008) translate(44.125 148.9)"/><use xlink:href="#o" transform="matrix(1,0,0,1,647.3051124890842,751.6743843563008) translate(114.075 148.9)"/><use xlink:href="#at" transform="matrix(1,0,0,1,647.3051124890842,751.6743843563008) translate(139.075 148.9)"/><use xlink:href="#au" transform="matrix(1,0,0,1,647.3051124890842,751.6743843563008) translate(158.025 148.9)"/><use xlink:href="#av" transform="matrix(1,0,0,1,647.3051124890842,751.6743843563008) translate(268.875 148.9)"/><use xlink:href="#aw" transform="matrix(1,0,0,1,647.3051124890842,751.6743843563008) translate(85.575 170.50000000000003)"/><use xlink:href="#ax" transform="matrix(1,0,0,1,647.3051124890842,751.6743843563008) translate(140.525 170.50000000000003)"/><use xlink:href="#aq" transform="matrix(1,0,0,1,647.3051124890842,751.6743843563008) translate(165.525 170.50000000000003)"/><use xlink:href="#ay" transform="matrix(1,0,0,1,647.3051124890842,751.6743843563008) translate(47.175 192.1)"/><use xlink:href="#az" transform="matrix(1,0,0,1,647.3051124890842,751.6743843563008) translate(107.125 192.1)"/><use xlink:href="#t" transform="matrix(1,0,0,1,647.3051124890842,751.6743843563008) translate(125.075 192.1)"/><use xlink:href="#aA" transform="matrix(1,0,0,1,647.3051124890842,751.6743843563008) translate(144.025 192.1)"/><use xlink:href="#aB" transform="matrix(1,0,0,1,647.3051124890842,751.6743843563008) translate(208.925 192.1)"/><use xlink:href="#aC" transform="matrix(1,0,0,1,647.3051124890842,751.6743843563008) translate(32.625 213.70000000000002)"/><use xlink:href="#p" transform="matrix(1,0,0,1,647.3051124890842,751.6743843563008) translate(58.625 213.70000000000002)"/><use xlink:href="#aj" transform="matrix(1,0,0,1,647.3051124890842,751.6743843563008) translate(86.575 213.70000000000002)"/><use xlink:href="#K" transform="matrix(1,0,0,1,647.3051124890842,751.6743843563008) translate(184.525 213.70000000000002)"/><use xlink:href="#aD" transform="matrix(1,0,0,1,647.3051124890842,751.6743843563008) translate(213.475 213.70000000000002)"/></g><path d="M952.54 757.67a6 6 0 0 1 6-6h293.24a6 6 0 0 1 6 6V1014a6 6 0 0 1-6 6H958.54a6 6 0 0 1-6-6z" fill="none"/><g><use xlink:href="#aE" transform="matrix(1,0,0,1,952.5446605194269,751.674384356301) translate(115.025 138.1)"/></g><path d="M92.68 824.22a6 6 0 0 1 6-6h510.04a6 6 0 0 1 6 6v353.9a6 6 0 0 1-6 6H98.68a6 6 0 0 1-6-6z" stroke="#282c33" stroke-width="2" fill="#fff"/><g><path d="M356.96 910.7v272.42" stroke="#282c33" stroke-width="2" stroke-linecap="round" fill="none"/></g><path d="M93.68 912.74h520.04" stroke="#282c33" stroke-width="2" stroke-linecap="round" fill="none"/><path d="M123.67 824.22a6 6 0 0 1 6-6h448.06a6 6 0 0 1 6 6v85.57a6 6 0 0 1-6 6H129.67a6 6 0 0 1-6-6z" fill="none"/><g><use xlink:href="#aF" transform="matrix(1,0,0,1,123.67441360929072,818.2204902442472) translate(206.025 52.6)"/></g><path d="M92.68 921.8a6 6 0 0 1 6-6H347.7a6 6 0 0 1 6 6v256.32a6 6 0 0 1-6 6H98.68a6 6 0 0 1-6-6z" fill="none"/><g><use xlink:href="#aG" transform="matrix(1,0,0,1,92.67803506529475,915.7934413874106) translate(13.149999999999991 62.50000000000001)"/><use xlink:href="#aH" transform="matrix(1,0,0,1,92.67803506529475,915.7934413874106) translate(76.1 62.50000000000001)"/><use xlink:href="#aI" transform="matrix(1,0,0,1,92.67803506529475,915.7934413874106) translate(160 62.50000000000001)"/><use xlink:href="#at" transform="matrix(1,0,0,1,92.67803506529475,915.7934413874106) translate(175 62.50000000000001)"/><use xlink:href="#aq" transform="matrix(1,0,0,1,92.67803506529475,915.7934413874106) translate(193.95 62.50000000000001)"/><use xlink:href="#aJ" transform="matrix(1,0,0,1,92.67803506529475,915.7934413874106) translate(20.700000000000003 84.10000000000002)"/><use xlink:href="#t" transform="matrix(1,0,0,1,92.67803506529475,915.7934413874106) translate(87.55000000000001 84.10000000000002)"/><use xlink:href="#aK" transform="matrix(1,0,0,1,92.67803506529475,915.7934413874106) translate(106.50000000000001 84.10000000000002)"/><use xlink:href="#K" transform="matrix(1,0,0,1,92.67803506529475,915.7934413874106) translate(152.45 84.10000000000002)"/><use xlink:href="#am" transform="matrix(1,0,0,1,92.67803506529475,915.7934413874106) translate(181.39999999999998 84.10000000000002)"/><use xlink:href="#aL" transform="matrix(1,0,0,1,92.67803506529475,915.7934413874106) translate(51.14999999999999 105.70000000000002)"/><use xlink:href="#at" transform="matrix(1,0,0,1,92.67803506529475,915.7934413874106) translate(137 105.70000000000002)"/><use xlink:href="#aq" transform="matrix(1,0,0,1,92.67803506529475,915.7934413874106) translate(155.95 105.70000000000002)"/><use xlink:href="#aM" transform="matrix(1,0,0,1,92.67803506529475,915.7934413874106) translate(59.675 127.30000000000003)"/><use xlink:href="#at" transform="matrix(1,0,0,1,92.67803506529475,915.7934413874106) translate(128.47500000000002 127.30000000000003)"/><use xlink:href="#aq" transform="matrix(1,0,0,1,92.67803506529475,915.7934413874106) translate(147.425 127.30000000000003)"/><use xlink:href="#aN" transform="matrix(1,0,0,1,92.67803506529475,915.7934413874106) translate(54.57499999999999 148.9)"/><use xlink:href="#t" transform="matrix(1,0,0,1,92.67803506529475,915.7934413874106) translate(122.52499999999999 148.9)"/><use xlink:href="#aO" transform="matrix(1,0,0,1,92.67803506529475,915.7934413874106) translate(141.475 148.9)"/><use xlink:href="#aC" transform="matrix(1,0,0,1,92.67803506529475,915.7934413874106) translate(39.07499999999999 170.50000000000003)"/><use xlink:href="#o" transform="matrix(1,0,0,1,92.67803506529475,915.7934413874106) translate(65.07499999999999 170.50000000000003)"/><use xlink:href="#aP" transform="matrix(1,0,0,1,92.67803506529475,915.7934413874106) translate(90.07499999999999 170.50000000000003)"/><use xlink:href="#aQ" transform="matrix(1,0,0,1,92.67803506529475,915.7934413874106) translate(139.02499999999998 170.50000000000003)"/><use xlink:href="#t" transform="matrix(1,0,0,1,92.67803506529475,915.7934413874106) translate(163.02499999999998 170.50000000000003)"/><use xlink:href="#aR" transform="matrix(1,0,0,1,92.67803506529475,915.7934413874106) translate(181.975 170.50000000000003)"/><use xlink:href="#aS" transform="matrix(1,0,0,1,92.67803506529475,915.7934413874106) translate(17.625 192.1)"/><use xlink:href="#aI" transform="matrix(1,0,0,1,92.67803506529475,915.7934413874106) translate(62.525 192.1)"/><use xlink:href="#aT" transform="matrix(1,0,0,1,92.67803506529475,915.7934413874106) translate(77.525 192.1)"/><use xlink:href="#o" transform="matrix(1,0,0,1,92.67803506529475,915.7934413874106) translate(112.525 192.1)"/><use xlink:href="#p" transform="matrix(1,0,0,1,92.67803506529475,915.7934413874106) translate(137.525 192.1)"/><use xlink:href="#aU" transform="matrix(1,0,0,1,92.67803506529475,915.7934413874106) translate(165.475 192.1)"/><use xlink:href="#s" transform="matrix(1,0,0,1,92.67803506529475,915.7934413874106) translate(71.07499999999999 213.70000000000002)"/><use xlink:href="#aV" transform="matrix(1,0,0,1,92.67803506529475,915.7934413874106) translate(112.02499999999999 213.70000000000002)"/></g><path d="M353.7 921.8a6 6 0 0 1 6-6h249.02a6 6 0 0 1 6 6v256.32a6 6 0 0 1-6 6H359.7a6 6 0 0 1-6-6z" fill="none"/><g><use xlink:href="#ag" transform="matrix(1,0,0,1,353.70017017262836,915.7934413874104) translate(105.55 138.1)"/></g><path d="M649.63 1046a6 6 0 0 1 6-6h596.15a6 6 0 0 1 6 6v129.76a6 6 0 0 1-6 6H655.63a6 6 0 0 1-6-6z" stroke="#282c33" stroke-width="2" fill="#fff"/><g><path d="M957.5 1076.44v104.32" stroke="#282c33" stroke-width="2" stroke-linecap="round" fill="none"/></g><path d="M650.63 1076.62h606.15" stroke="#282c33" stroke-width="2" stroke-linecap="round" fill="none"/><path d="M685.74 1046a6 6 0 0 1 6-6h523.93a6 6 0 0 1 6 6v25.8a6 6 0 0 1-6 6H691.75a6 6 0 0 1-6-6z" fill="none"/><g><use xlink:href="#aW" transform="matrix(1,0,0,1,685.7433471212189,1040.0000000000002) translate(197.6 22.6)"/></g><path d="M649.63 1083.8a6 6 0 0 1 6-6H947.7a6 6 0 0 1 6 6v91.96a6 6 0 0 1-6 6H655.64a6 6 0 0 1-6-6z" fill="none"/><g><use xlink:href="#aX" transform="matrix(1,0,0,1,649.6344555360278,1077.8017198770124) translate(88.57499999999999 55.6)"/><use xlink:href="#t" transform="matrix(1,0,0,1,649.6344555360278,1077.8017198770124) translate(153.52499999999998 55.6)"/><use xlink:href="#aY" transform="matrix(1,0,0,1,649.6344555360278,1077.8017198770124) translate(172.475 55.6)"/></g><path d="M953.7 1083.8a6 6 0 0 1 6-6H1248a6 6 0 0 1 6 6v94.32a6 6 0 0 1-6 6H959.7a6 6 0 0 1-6-6z" fill="none"/><g><use xlink:href="#aF" transform="matrix(1,0,0,1,953.7093320428985,1077.8017198770124) translate(126.025 57.1)"/></g><defs><path d="M127-220V0H93v-220H8v-28h204v28h-85" id="aZ"/><path d="M179-190L93 31C79 59 56 82 12 73V49c39 6 53-20 64-50L1-190h34L92-34l54-156h33" id="ba"/><path d="M115-194c55 1 70 41 70 98S169 2 115 4C84 4 66-9 55-30l1 105H24l-1-265h31l2 30c10-21 28-34 59-34zm-8 174c40 0 45-34 45-75s-6-73-45-74c-42 0-51 32-51 76 0 43 10 73 51 73" id="bb"/><path d="M100-194c63 0 86 42 84 106H49c0 40 14 67 53 68 26 1 43-12 49-29l28 8c-11 28-37 45-77 45C44 4 14-33 15-96c1-61 26-98 85-98zm52 81c6-60-76-77-97-28-3 7-6 17-6 28h103" id="bc"/><path d="M30 0v-248h187v28H63v79h144v27H63v87h162V0H30" id="bd"/><path d="M101-234c-31-9-42 10-38 44h38v23H63V0H32v-167H5v-23h27c-7-52 17-82 69-68v24" id="be"/><path d="M96-169c-40 0-48 33-48 73s9 75 48 75c24 0 41-14 43-38l32 2c-6 37-31 61-74 61-59 0-76-41-82-99-10-93 101-131 147-64 4 7 5 14 7 22l-32 3c-4-21-16-35-41-35" id="bf"/><path d="M59-47c-2 24 18 29 38 22v24C64 9 27 4 27-40v-127H5v-23h24l9-43h21v43h35v23H59v120" id="bg"/><path d="M24-231v-30h32v30H24zM24 0v-190h32V0H24" id="bh"/><path d="M108 0H70L1-190h34L89-25l56-165h34" id="bi"/><g id="a"><use transform="matrix(0.05,0,0,0.05,0,0)" xlink:href="#aZ"/><use transform="matrix(0.05,0,0,0.05,9.950000000000001,0)" xlink:href="#ba"/><use transform="matrix(0.05,0,0,0.05,18.950000000000003,0)" xlink:href="#bb"/><use transform="matrix(0.05,0,0,0.05,28.950000000000003,0)" xlink:href="#bc"/><use transform="matrix(0.05,0,0,0.05,38.95,0)" xlink:href="#bd"/><use transform="matrix(0.05,0,0,0.05,50.95,0)" xlink:href="#be"/><use transform="matrix(0.05,0,0,0.05,55.6,0)" xlink:href="#be"/><use transform="matrix(0.05,0,0,0.05,60.6,0)" xlink:href="#bc"/><use transform="matrix(0.05,0,0,0.05,70.6,0)" xlink:href="#bf"/><use transform="matrix(0.05,0,0,0.05,79.6,0)" xlink:href="#bg"/><use transform="matrix(0.05,0,0,0.05,84.6,0)" xlink:href="#bh"/><use transform="matrix(0.05,0,0,0.05,88.55,0)" xlink:href="#bi"/><use transform="matrix(0.05,0,0,0.05,97.55,0)" xlink:href="#bh"/><use transform="matrix(0.05,0,0,0.05,101.5,0)" xlink:href="#bg"/><use transform="matrix(0.05,0,0,0.05,106.5,0)" xlink:href="#ba"/></g><path d="M141-36C126-15 110 5 73 4 37 3 15-17 15-53c-1-64 63-63 125-63 3-35-9-54-41-54-24 1-41 7-42 31l-33-3c5-37 33-52 76-52 45 0 72 20 72 64v82c-1 20 7 32 28 27v20c-31 9-61-2-59-35zM48-53c0 20 12 33 32 33 41-3 63-29 60-74-43 2-92-5-92 41" id="bj"/><path d="M24 0v-261h32V0H24" id="bk"/><path d="M84 4C-5 8 30-112 23-190h32v120c0 31 7 50 39 49 72-2 45-101 50-169h31l1 190h-30c-1-10 1-25-2-33-11 22-28 36-60 37" id="bl"/><g id="b"><use transform="matrix(0.05,0,0,0.05,0,0)" xlink:href="#bd"/><use transform="matrix(0.05,0,0,0.05,12,0)" xlink:href="#bi"/><use transform="matrix(0.05,0,0,0.05,21,0)" xlink:href="#bj"/><use transform="matrix(0.05,0,0,0.05,31,0)" xlink:href="#bk"/><use transform="matrix(0.05,0,0,0.05,34.95,0)" xlink:href="#bl"/><use transform="matrix(0.05,0,0,0.05,44.95,0)" xlink:href="#bj"/></g><g id="c"><use transform="matrix(0.05,0,0,0.05,0,0)" xlink:href="#bk"/><use transform="matrix(0.05,0,0,0.05,3.95,0)" xlink:href="#bj"/></g><path d="M85-194c31 0 48 13 60 33l-1-100h32l1 261h-30c-2-10 0-23-3-31C134-8 116 4 85 4 32 4 16-35 15-94c0-66 23-100 70-100zm9 24c-40 0-46 34-46 75 0 40 6 74 45 74 42 0 51-32 51-76 0-42-9-74-50-73" id="bm"/><g id="d"><use transform="matrix(0.05,0,0,0.05,0,0)" xlink:href="#bc"/><use transform="matrix(0.05,0,0,0.05,10,0)" xlink:href="#be"/><use transform="matrix(0.05,0,0,0.05,15,0)" xlink:href="#bc"/><use transform="matrix(0.05,0,0,0.05,25,0)" xlink:href="#bf"/><use transform="matrix(0.05,0,0,0.05,34,0)" xlink:href="#bg"/><use transform="matrix(0.05,0,0,0.05,39,0)" xlink:href="#bh"/><use transform="matrix(0.05,0,0,0.05,42.95,0)" xlink:href="#bi"/><use transform="matrix(0.05,0,0,0.05,51.95,0)" xlink:href="#bh"/><use transform="matrix(0.05,0,0,0.05,55.900000000000006,0)" xlink:href="#bm"/><use transform="matrix(0.05,0,0,0.05,65.9,0)" xlink:href="#bj"/><use transform="matrix(0.05,0,0,0.05,75.9,0)" xlink:href="#bm"/></g><g id="e"><use transform="matrix(0.05,0,0,0.05,0,0)" xlink:href="#bm"/><use transform="matrix(0.05,0,0,0.05,10,0)" xlink:href="#bc"/><use transform="matrix(0.05,0,0,0.05,20,0)" xlink:href="#bk"/></g><path d="M145-31C134-9 116 4 85 4 32 4 16-35 15-94c0-59 17-99 70-100 32-1 48 14 60 33 0-11-1-24 2-32h30l-1 268h-32zM93-21c41 0 51-33 51-76s-8-73-50-73c-40 0-46 35-46 75s5 74 45 74" id="bn"/><g id="f"><use transform="matrix(0.05,0,0,0.05,0,0)" xlink:href="#bj"/><use transform="matrix(0.05,0,0,0.05,10,0)" xlink:href="#bg"/><use transform="matrix(0.05,0,0,0.05,15,0)" xlink:href="#bj"/><use transform="matrix(0.05,0,0,0.05,25,0)" xlink:href="#bn"/><use transform="matrix(0.05,0,0,0.05,35,0)" xlink:href="#bl"/><use transform="matrix(0.05,0,0,0.05,45,0)" xlink:href="#bc"/></g><path d="M117-194c89-4 53 116 60 194h-32v-121c0-31-8-49-39-48C34-167 62-67 57 0H25l-1-190h30c1 10-1 24 2 32 11-22 29-35 61-36" id="bo"/><g id="g"><use transform="matrix(0.05,0,0,0.05,0,0)" xlink:href="#bc"/><use transform="matrix(0.05,0,0,0.05,10,0)" xlink:href="#bo"/></g><path d="M115-194c53 0 69 39 70 98 0 66-23 100-70 100C84 3 66-7 56-30L54 0H23l1-261h32v101c10-23 28-34 59-34zm-8 174c40 0 45-34 45-75 0-40-5-75-45-74-42 0-51 32-51 76 0 43 10 73 51 73" id="bp"/><path d="M135-143c-3-34-86-38-87 0 15 53 115 12 119 90S17 21 10-45l28-5c4 36 97 45 98 0-10-56-113-15-118-90-4-57 82-63 122-42 12 7 21 19 24 35" id="bq"/><g id="h"><use transform="matrix(0.05,0,0,0.05,0,0)" xlink:href="#bp"/><use transform="matrix(0.05,0,0,0.05,10,0)" xlink:href="#bj"/><use transform="matrix(0.05,0,0,0.05,20,0)" xlink:href="#bq"/><use transform="matrix(0.05,0,0,0.05,29,0)" xlink:href="#bc"/></g><g id="i"><use transform="matrix(0.05,0,0,0.05,0,0)" xlink:href="#bj"/><use transform="matrix(0.05,0,0,0.05,10,0)" xlink:href="#bk"/></g><path d="M100-194c62-1 85 37 85 99 1 63-27 99-86 99S16-35 15-95c0-66 28-99 85-99zM99-20c44 1 53-31 53-75 0-43-8-75-51-75s-53 32-53 75 10 74 51 75" id="br"/><g id="j"><use transform="matrix(0.05,0,0,0.05,0,0)" xlink:href="#bg"/><use transform="matrix(0.05,0,0,0.05,5,0)" xlink:href="#bh"/><use transform="matrix(0.05,0,0,0.05,8.95,0)" xlink:href="#bb"/><use transform="matrix(0.05,0,0,0.05,18.95,0)" xlink:href="#br"/></g><path d="M143 0L79-87 56-68V0H24v-261h32v163l83-92h37l-77 82L181 0h-38" id="bs"/><path d="M210-169c-67 3-38 105-44 169h-31v-121c0-29-5-50-35-48C34-165 62-65 56 0H25l-1-190h30c1 10-1 24 2 32 10-44 99-50 107 0 11-21 27-35 58-36 85-2 47 119 55 194h-31v-121c0-29-5-49-35-48" id="bt"/><g id="k"><use transform="matrix(0.05,0,0,0.05,0,0)" xlink:href="#bb"/><use transform="matrix(0.05,0,0,0.05,10,0)" xlink:href="#br"/><use transform="matrix(0.05,0,0,0.05,20,0)" xlink:href="#bs"/><use transform="matrix(0.05,0,0,0.05,29,0)" xlink:href="#bc"/><use transform="matrix(0.05,0,0,0.05,39,0)" xlink:href="#bt"/><use transform="matrix(0.05,0,0,0.05,53.95,0)" xlink:href="#br"/><use transform="matrix(0.05,0,0,0.05,63.95,0)" xlink:href="#bo"/></g><path d="M33 0v-38h34V0H33" id="bu"/><g id="l"><use transform="matrix(0.05,0,0,0.05,0,0)" xlink:href="#bj"/><use transform="matrix(0.05,0,0,0.05,10,0)" xlink:href="#bg"/><use transform="matrix(0.05,0,0,0.05,15,0)" xlink:href="#bj"/><use transform="matrix(0.05,0,0,0.05,25,0)" xlink:href="#bf"/><use transform="matrix(0.05,0,0,0.05,34,0)" xlink:href="#bj"/><use transform="matrix(0.05,0,0,0.05,44,0)" xlink:href="#bm"/><use transform="matrix(0.05,0,0,0.05,54,0)" xlink:href="#br"/><use transform="matrix(0.05,0,0,0.05,64,0)" xlink:href="#bu"/></g><path d="M212-179c-10-28-35-45-73-45-59 0-87 40-87 99 0 60 29 101 89 101 43 0 62-24 78-52l27 14C228-24 195 4 139 4 59 4 22-46 18-125c-6-104 99-153 187-111 19 9 31 26 39 46" id="bv"/><g id="m"><use transform="matrix(0.05,0,0,0.05,0,0)" xlink:href="#bv"/><use transform="matrix(0.05,0,0,0.05,12.950000000000001,0)" xlink:href="#bj"/><use transform="matrix(0.05,0,0,0.05,22.950000000000003,0)" xlink:href="#bk"/><use transform="matrix(0.05,0,0,0.05,26.900000000000002,0)" xlink:href="#bf"/><use transform="matrix(0.05,0,0,0.05,35.900000000000006,0)" xlink:href="#bl"/><use transform="matrix(0.05,0,0,0.05,45.900000000000006,0)" xlink:href="#bk"/><use transform="matrix(0.05,0,0,0.05,49.85000000000001,0)" xlink:href="#bj"/><use transform="matrix(0.05,0,0,0.05,59.85,0)" xlink:href="#bg"/><use transform="matrix(0.05,0,0,0.05,64.85000000000001,0)" xlink:href="#bc"/></g><path d="M233-177c-1 41-23 64-60 70L243 0h-38l-65-103H63V0H30v-248c88 3 205-21 203 71zM63-129c60-2 137 13 137-47 0-61-80-42-137-45v92" id="bw"/><g id="n"><use transform="matrix(0.05,0,0,0.05,0,0)" xlink:href="#bw"/><use transform="matrix(0.05,0,0,0.05,12.950000000000001,0)" xlink:href="#bc"/><use transform="matrix(0.05,0,0,0.05,22.950000000000003,0)" xlink:href="#bq"/><use transform="matrix(0.05,0,0,0.05,31.950000000000003,0)" xlink:href="#bb"/><use transform="matrix(0.05,0,0,0.05,41.95,0)" xlink:href="#br"/><use transform="matrix(0.05,0,0,0.05,51.95,0)" xlink:href="#bo"/><use transform="matrix(0.05,0,0,0.05,61.95,0)" xlink:href="#bq"/><use transform="matrix(0.05,0,0,0.05,70.95,0)" xlink:href="#bj"/><use transform="matrix(0.05,0,0,0.05,80.95,0)" xlink:href="#bp"/><use transform="matrix(0.05,0,0,0.05,90.95,0)" xlink:href="#bk"/><use transform="matrix(0.05,0,0,0.05,94.9,0)" xlink:href="#bc"/></g><g id="o"><use transform="matrix(0.05,0,0,0.05,0,0)" xlink:href="#bm"/><use transform="matrix(0.05,0,0,0.05,10,0)" xlink:href="#bc"/></g><g id="p"><use transform="matrix(0.05,0,0,0.05,0,0)" xlink:href="#bk"/><use transform="matrix(0.05,0,0,0.05,3.95,0)" xlink:href="#br"/><use transform="matrix(0.05,0,0,0.05,13.949999999999998,0)" xlink:href="#bq"/></g><g id="q"><use transform="matrix(0.05,0,0,0.05,0,0)" xlink:href="#bf"/><use transform="matrix(0.05,0,0,0.05,9,0)" xlink:href="#bj"/><use transform="matrix(0.05,0,0,0.05,19,0)" xlink:href="#bk"/><use transform="matrix(0.05,0,0,0.05,22.95,0)" xlink:href="#bf"/><use transform="matrix(0.05,0,0,0.05,31.950000000000003,0)" xlink:href="#bl"/><use transform="matrix(0.05,0,0,0.05,41.95,0)" xlink:href="#bk"/><use transform="matrix(0.05,0,0,0.05,45.900000000000006,0)" xlink:href="#br"/><use transform="matrix(0.05,0,0,0.05,55.900000000000006,0)" xlink:href="#bq"/></g><path d="M114-163C36-179 61-72 57 0H25l-1-190h30c1 12-1 29 2 39 6-27 23-49 58-41v29" id="bx"/><g id="r"><use transform="matrix(0.05,0,0,0.05,0,0)" xlink:href="#bo"/><use transform="matrix(0.05,0,0,0.05,10,0)" xlink:href="#bc"/><use transform="matrix(0.05,0,0,0.05,20,0)" xlink:href="#bf"/><use transform="matrix(0.05,0,0,0.05,29,0)" xlink:href="#bc"/><use transform="matrix(0.05,0,0,0.05,39,0)" xlink:href="#bq"/><use transform="matrix(0.05,0,0,0.05,48,0)" xlink:href="#bj"/><use transform="matrix(0.05,0,0,0.05,58,0)" xlink:href="#bx"/><use transform="matrix(0.05,0,0,0.05,63.95,0)" xlink:href="#bh"/><use transform="matrix(0.05,0,0,0.05,67.9,0)" xlink:href="#br"/><use transform="matrix(0.05,0,0,0.05,77.9,0)" xlink:href="#bq"/></g><g id="s"><use transform="matrix(0.05,0,0,0.05,0,0)" xlink:href="#bb"/><use transform="matrix(0.05,0,0,0.05,10,0)" xlink:href="#bj"/><use transform="matrix(0.05,0,0,0.05,20,0)" xlink:href="#bx"/><use transform="matrix(0.05,0,0,0.05,25.950000000000003,0)" xlink:href="#bj"/></g><g id="t"><use transform="matrix(0.05,0,0,0.05,0,0)" xlink:href="#bc"/><use transform="matrix(0.05,0,0,0.05,10,0)" xlink:href="#bk"/></g><g id="u"><use transform="matrix(0.05,0,0,0.05,0,0)" xlink:href="#be"/><use transform="matrix(0.05,0,0,0.05,5,0)" xlink:href="#bl"/><use transform="matrix(0.05,0,0,0.05,15,0)" xlink:href="#bo"/><use transform="matrix(0.05,0,0,0.05,25,0)" xlink:href="#bf"/><use transform="matrix(0.05,0,0,0.05,34,0)" xlink:href="#bh"/><use transform="matrix(0.05,0,0,0.05,37.95,0)" xlink:href="#br"/><use transform="matrix(0.05,0,0,0.05,47.95,0)" xlink:href="#bo"/><use transform="matrix(0.05,0,0,0.05,57.95,0)" xlink:href="#bj"/><use transform="matrix(0.05,0,0,0.05,67.95,0)" xlink:href="#bt"/><use transform="matrix(0.05,0,0,0.05,82.9,0)" xlink:href="#bh"/><use transform="matrix(0.05,0,0,0.05,86.85000000000001,0)" xlink:href="#bc"/><use transform="matrix(0.05,0,0,0.05,96.85000000000001,0)" xlink:href="#bo"/><use transform="matrix(0.05,0,0,0.05,106.85000000000001,0)" xlink:href="#bg"/><use transform="matrix(0.05,0,0,0.05,111.85000000000001,0)" xlink:href="#br"/></g><g id="v"><use transform="matrix(0.05,0,0,0.05,0,0)" xlink:href="#bm"/><use transform="matrix(0.05,0,0,0.05,10,0)" xlink:href="#bc"/><use transform="matrix(0.05,0,0,0.05,20,0)" xlink:href="#bk"/></g><path d="M177-190C167-65 218 103 67 71c-23-6-38-20-44-43l32-5c15 47 100 32 89-28v-30C133-14 115 1 83 1 29 1 15-40 15-95c0-56 16-97 71-98 29-1 48 16 59 35 1-10 0-23 2-32h30zM94-22c36 0 50-32 50-73 0-42-14-75-50-75-39 0-46 34-46 75s6 73 46 73" id="by"/><g id="w"><use transform="matrix(0.05,0,0,0.05,0,0)" xlink:href="#bb"/><use transform="matrix(0.05,0,0,0.05,10,0)" xlink:href="#bx"/><use transform="matrix(0.05,0,0,0.05,15.949999999999998,0)" xlink:href="#br"/><use transform="matrix(0.05,0,0,0.05,25.950000000000003,0)" xlink:href="#by"/><use transform="matrix(0.05,0,0,0.05,35.95,0)" xlink:href="#bx"/><use transform="matrix(0.05,0,0,0.05,41.900000000000006,0)" xlink:href="#bj"/><use transform="matrix(0.05,0,0,0.05,51.900000000000006,0)" xlink:href="#bt"/><use transform="matrix(0.05,0,0,0.05,66.85000000000001,0)" xlink:href="#bj"/></g><path d="M87 75C49 33 22-17 22-94c0-76 28-126 65-167h31c-38 41-64 92-64 168S80 34 118 75H87" id="bz"/><path d="M30-248c118-7 216 8 213 122C240-48 200 0 122 0H30v-248zM63-27c89 8 146-16 146-99s-60-101-146-95v194" id="bA"/><path d="M118-194c89-4 53 116 60 194h-32v-121c0-31-8-49-39-48C35-167 63-67 58 0H26l-1-190h30c1 10-1 24 2 32 11-22 29-35 61-36zm47-64c-3 23-9 48-36 47-26-1-65-44-74 0H39c4-23 8-48 36-47s64 44 74 0h16" id="bB"/><path d="M30-248c87 1 191-15 191 75 0 78-77 80-158 76V0H30v-248zm33 125c57 0 124 11 124-50 0-59-68-47-124-48v98" id="bC"/><path d="M68-38c1 34 0 65-14 84H32c9-13 17-26 17-46H33v-38h35" id="bD"/><g id="x"><use transform="matrix(0.05,0,0,0.05,0,0)" xlink:href="#bz"/><use transform="matrix(0.05,0,0,0.05,5.95,0)" xlink:href="#bA"/><use transform="matrix(0.05,0,0,0.05,18.900000000000002,0)" xlink:href="#bj"/><use transform="matrix(0.05,0,0,0.05,28.900000000000002,0)" xlink:href="#bB"/><use transform="matrix(0.05,0,0,0.05,38.900000000000006,0)" xlink:href="#br"/><use transform="matrix(0.05,0,0,0.05,48.900000000000006,0)" xlink:href="#bA"/><use transform="matrix(0.05,0,0,0.05,61.85,0)" xlink:href="#bc"/><use transform="matrix(0.05,0,0,0.05,71.85000000000001,0)" xlink:href="#bk"/><use transform="matrix(0.05,0,0,0.05,75.80000000000001,0)" xlink:href="#bC"/><use transform="matrix(0.05,0,0,0.05,87.80000000000001,0)" xlink:href="#br"/><use transform="matrix(0.05,0,0,0.05,97.80000000000001,0)" xlink:href="#bs"/><use transform="matrix(0.05,0,0,0.05,106.80000000000001,0)" xlink:href="#bc"/><use transform="matrix(0.05,0,0,0.05,116.80000000000001,0)" xlink:href="#bt"/><use transform="matrix(0.05,0,0,0.05,131.75,0)" xlink:href="#br"/><use transform="matrix(0.05,0,0,0.05,141.75,0)" xlink:href="#bo"/><use transform="matrix(0.05,0,0,0.05,151.75,0)" xlink:href="#bD"/></g><path d="M160-131c35 5 61 23 61 61C221 17 115-2 30 0v-248c76 3 177-17 177 60 0 33-19 50-47 57zm-97-11c50-1 110 9 110-42 0-47-63-36-110-37v79zm0 115c55-2 124 14 124-45 0-56-70-42-124-44v89" id="bE"/><path d="M205 0l-28-72H64L36 0H1l101-248h38L239 0h-34zm-38-99l-47-123c-12 45-31 82-46 123h93" id="bF"/><g id="y"><use transform="matrix(0.05,0,0,0.05,0,0)" xlink:href="#bE"/><use transform="matrix(0.05,0,0,0.05,12,0)" xlink:href="#br"/><use transform="matrix(0.05,0,0,0.05,22,0)" xlink:href="#bo"/><use transform="matrix(0.05,0,0,0.05,32,0)" xlink:href="#bl"/><use transform="matrix(0.05,0,0,0.05,42,0)" xlink:href="#bq"/><use transform="matrix(0.05,0,0,0.05,51,0)" xlink:href="#bA"/><use transform="matrix(0.05,0,0,0.05,63.95,0)" xlink:href="#bc"/><use transform="matrix(0.05,0,0,0.05,73.95,0)" xlink:href="#bF"/><use transform="matrix(0.05,0,0,0.05,85.95,0)" xlink:href="#bg"/><use transform="matrix(0.05,0,0,0.05,90.95,0)" xlink:href="#bj"/><use transform="matrix(0.05,0,0,0.05,100.95,0)" xlink:href="#bn"/><use transform="matrix(0.05,0,0,0.05,110.95,0)" xlink:href="#bl"/><use transform="matrix(0.05,0,0,0.05,120.95,0)" xlink:href="#bc"/><use transform="matrix(0.05,0,0,0.05,130.95,0)" xlink:href="#bD"/></g><g id="z"><use transform="matrix(0.05,0,0,0.05,0,0)" xlink:href="#bd"/><use transform="matrix(0.05,0,0,0.05,12,0)" xlink:href="#be"/><use transform="matrix(0.05,0,0,0.05,17,0)" xlink:href="#bc"/><use transform="matrix(0.05,0,0,0.05,27,0)" xlink:href="#bf"/><use transform="matrix(0.05,0,0,0.05,36,0)" xlink:href="#bg"/><use transform="matrix(0.05,0,0,0.05,41,0)" xlink:href="#bh"/><use transform="matrix(0.05,0,0,0.05,44.95,0)" xlink:href="#bi"/><use transform="matrix(0.05,0,0,0.05,53.95,0)" xlink:href="#bh"/><use transform="matrix(0.05,0,0,0.05,57.900000000000006,0)" xlink:href="#bm"/><use transform="matrix(0.05,0,0,0.05,67.9,0)" xlink:href="#bj"/><use transform="matrix(0.05,0,0,0.05,77.9,0)" xlink:href="#bm"/><use transform="matrix(0.05,0,0,0.05,87.9,0)" xlink:href="#bA"/><use transform="matrix(0.05,0,0,0.05,100.85000000000001,0)" xlink:href="#bc"/><use transform="matrix(0.05,0,0,0.05,110.85000000000001,0)" xlink:href="#bF"/><use transform="matrix(0.05,0,0,0.05,122.85000000000001,0)" xlink:href="#bg"/><use transform="matrix(0.05,0,0,0.05,127.85000000000001,0)" xlink:href="#bj"/><use transform="matrix(0.05,0,0,0.05,137.85000000000002,0)" xlink:href="#bn"/><use transform="matrix(0.05,0,0,0.05,147.85000000000002,0)" xlink:href="#bl"/><use transform="matrix(0.05,0,0,0.05,157.85000000000002,0)" xlink:href="#bc"/><use transform="matrix(0.05,0,0,0.05,167.85000000000002,0)" xlink:href="#bD"/></g><path d="M137 0h-34L2-248h35l83 218 83-218h36" id="bG"/><path d="M33-261c38 41 65 92 65 168S71 34 33 75H2C39 34 66-17 66-93S39-220 2-261h31" id="bH"/><g id="A"><use transform="matrix(0.05,0,0,0.05,0,0)" xlink:href="#bG"/><use transform="matrix(0.05,0,0,0.05,10.65,0)" xlink:href="#bj"/><use transform="matrix(0.05,0,0,0.05,20.65,0)" xlink:href="#bx"/><use transform="matrix(0.05,0,0,0.05,26.599999999999994,0)" xlink:href="#bh"/><use transform="matrix(0.05,0,0,0.05,30.549999999999997,0)" xlink:href="#bj"/><use transform="matrix(0.05,0,0,0.05,40.55,0)" xlink:href="#bf"/><use transform="matrix(0.05,0,0,0.05,49.55,0)" xlink:href="#bh"/><use transform="matrix(0.05,0,0,0.05,53.5,0)" xlink:href="#br"/><use transform="matrix(0.05,0,0,0.05,63.5,0)" xlink:href="#bo"/><use transform="matrix(0.05,0,0,0.05,73.5,0)" xlink:href="#bA"/><use transform="matrix(0.05,0,0,0.05,86.45,0)" xlink:href="#bc"/><use transform="matrix(0.05,0,0,0.05,96.45,0)" xlink:href="#bF"/><use transform="matrix(0.05,0,0,0.05,108.45,0)" xlink:href="#bg"/><use transform="matrix(0.05,0,0,0.05,113.45,0)" xlink:href="#bj"/><use transform="matrix(0.05,0,0,0.05,123.45,0)" xlink:href="#bn"/><use transform="matrix(0.05,0,0,0.05,133.45,0)" xlink:href="#bl"/><use transform="matrix(0.05,0,0,0.05,143.45,0)" xlink:href="#bc"/><use transform="matrix(0.05,0,0,0.05,153.45,0)" xlink:href="#bu"/><use transform="matrix(0.05,0,0,0.05,158.45,0)" xlink:href="#bH"/></g><g id="B"><use transform="matrix(0.05,0,0,0.05,0,0)" xlink:href="#aZ"/><use transform="matrix(0.05,0,0,0.05,9.950000000000001,0)" xlink:href="#ba"/><use transform="matrix(0.05,0,0,0.05,18.950000000000003,0)" xlink:href="#bb"/><use transform="matrix(0.05,0,0,0.05,28.950000000000003,0)" xlink:href="#bc"/><use transform="matrix(0.05,0,0,0.05,38.95,0)" xlink:href="#bd"/><use transform="matrix(0.05,0,0,0.05,50.95,0)" xlink:href="#be"/><use transform="matrix(0.05,0,0,0.05,55.6,0)" xlink:href="#be"/><use transform="matrix(0.05,0,0,0.05,60.6,0)" xlink:href="#bc"/><use transform="matrix(0.05,0,0,0.05,70.6,0)" xlink:href="#bf"/><use transform="matrix(0.05,0,0,0.05,79.6,0)" xlink:href="#bg"/><use transform="matrix(0.05,0,0,0.05,84.6,0)" xlink:href="#bh"/><use transform="matrix(0.05,0,0,0.05,88.55,0)" xlink:href="#bi"/><use transform="matrix(0.05,0,0,0.05,97.55,0)" xlink:href="#bh"/><use transform="matrix(0.05,0,0,0.05,101.5,0)" xlink:href="#bg"/><use transform="matrix(0.05,0,0,0.05,106.5,0)" xlink:href="#ba"/></g><path d="M240 0l2-218c-23 76-54 145-80 218h-23L58-218 59 0H30v-248h44l77 211c21-75 51-140 76-211h43V0h-30" id="bI"/><g id="C"><use transform="matrix(0.05,0,0,0.05,0,0)" xlink:href="#bI"/><use transform="matrix(0.05,0,0,0.05,14.950000000000001,0)" xlink:href="#br"/><use transform="matrix(0.05,0,0,0.05,24.950000000000003,0)" xlink:href="#bi"/><use transform="matrix(0.05,0,0,0.05,33.95,0)" xlink:href="#bc"/></g><path d="M33 0v-248h34V0H33" id="bJ"/><g id="D"><use transform="matrix(0.05,0,0,0.05,0,0)" xlink:href="#bJ"/><use transform="matrix(0.05,0,0,0.05,5,0)" xlink:href="#bt"/><use transform="matrix(0.05,0,0,0.05,19.950000000000003,0)" xlink:href="#bb"/><use transform="matrix(0.05,0,0,0.05,29.950000000000003,0)" xlink:href="#bx"/><use transform="matrix(0.05,0,0,0.05,35.900000000000006,0)" xlink:href="#bh"/><use transform="matrix(0.05,0,0,0.05,39.85000000000001,0)" xlink:href="#bt"/><use transform="matrix(0.05,0,0,0.05,54.80000000000001,0)" xlink:href="#bc"/></g><g id="E"><use transform="matrix(0.05,0,0,0.05,0,0)" xlink:href="#bj"/><use transform="matrix(0.05,0,0,0.05,10,0)" xlink:href="#bg"/><use transform="matrix(0.05,0,0,0.05,15,0)" xlink:href="#bx"/><use transform="matrix(0.05,0,0,0.05,20.95,0)" xlink:href="#bh"/><use transform="matrix(0.05,0,0,0.05,24.9,0)" xlink:href="#bp"/><use transform="matrix(0.05,0,0,0.05,34.9,0)" xlink:href="#bl"/><use transform="matrix(0.05,0,0,0.05,44.9,0)" xlink:href="#bg"/><use transform="matrix(0.05,0,0,0.05,49.9,0)" xlink:href="#br"/><use transform="matrix(0.05,0,0,0.05,59.900000000000006,0)" xlink:href="#bq"/></g><g id="F"><use transform="matrix(0.05,0,0,0.05,0,0)" xlink:href="#bk"/><use transform="matrix(0.05,0,0,0.05,3.95,0)" xlink:href="#br"/><use transform="matrix(0.05,0,0,0.05,13.949999999999998,0)" xlink:href="#bq"/></g><g id="G"><use transform="matrix(0.05,0,0,0.05,0,0)" xlink:href="#bt"/><use transform="matrix(0.05,0,0,0.05,14.950000000000001,0)" xlink:href="#br"/><use transform="matrix(0.05,0,0,0.05,24.950000000000003,0)" xlink:href="#bi"/><use transform="matrix(0.05,0,0,0.05,33.95,0)" xlink:href="#bh"/><use transform="matrix(0.05,0,0,0.05,37.900000000000006,0)" xlink:href="#bt"/><use transform="matrix(0.05,0,0,0.05,52.85,0)" xlink:href="#bh"/><use transform="matrix(0.05,0,0,0.05,56.80000000000001,0)" xlink:href="#bc"/><use transform="matrix(0.05,0,0,0.05,66.80000000000001,0)" xlink:href="#bo"/><use transform="matrix(0.05,0,0,0.05,76.80000000000001,0)" xlink:href="#bg"/><use transform="matrix(0.05,0,0,0.05,81.80000000000001,0)" xlink:href="#br"/><use transform="matrix(0.05,0,0,0.05,91.80000000000001,0)" xlink:href="#bq"/></g><g id="H"><use transform="matrix(0.05,0,0,0.05,0,0)" xlink:href="#aZ"/><use transform="matrix(0.05,0,0,0.05,9.950000000000001,0)" xlink:href="#ba"/><use transform="matrix(0.05,0,0,0.05,18.950000000000003,0)" xlink:href="#bb"/><use transform="matrix(0.05,0,0,0.05,28.950000000000003,0)" xlink:href="#bc"/></g><g id="I"><use transform="matrix(0.05,0,0,0.05,0,0)" xlink:href="#bv"/><use transform="matrix(0.05,0,0,0.05,12.950000000000001,0)" xlink:href="#br"/><use transform="matrix(0.05,0,0,0.05,22.950000000000003,0)" xlink:href="#bo"/><use transform="matrix(0.05,0,0,0.05,32.95,0)" xlink:href="#br"/><use transform="matrix(0.05,0,0,0.05,42.95,0)" xlink:href="#bf"/><use transform="matrix(0.05,0,0,0.05,51.95,0)" xlink:href="#bc"/></g><g id="J"><use transform="matrix(0.05,0,0,0.05,0,0)" xlink:href="#bo"/><use transform="matrix(0.05,0,0,0.05,10,0)" xlink:href="#br"/><use transform="matrix(0.05,0,0,0.05,20,0)" xlink:href="#bt"/><use transform="matrix(0.05,0,0,0.05,34.95,0)" xlink:href="#bp"/><use transform="matrix(0.05,0,0,0.05,44.95,0)" xlink:href="#bx"/><use transform="matrix(0.05,0,0,0.05,50.900000000000006,0)" xlink:href="#bc"/></g><g id="K"><use transform="matrix(0.05,0,0,0.05,0,0)" xlink:href="#bm"/><use transform="matrix(0.05,0,0,0.05,10,0)" xlink:href="#bc"/><use transform="matrix(0.05,0,0,0.05,20,0)" xlink:href="#bk"/></g><g id="L"><use transform="matrix(0.05,0,0,0.05,0,0)" xlink:href="#bg"/><use transform="matrix(0.05,0,0,0.05,5,0)" xlink:href="#bh"/><use transform="matrix(0.05,0,0,0.05,8.95,0)" xlink:href="#bb"/><use transform="matrix(0.05,0,0,0.05,18.95,0)" xlink:href="#br"/></g><g id="M"><use transform="matrix(0.05,0,0,0.05,0,0)" xlink:href="#bC"/><use transform="matrix(0.05,0,0,0.05,12,0)" xlink:href="#br"/><use transform="matrix(0.05,0,0,0.05,22,0)" xlink:href="#bs"/><use transform="matrix(0.05,0,0,0.05,31,0)" xlink:href="#bc"/><use transform="matrix(0.05,0,0,0.05,41,0)" xlink:href="#bt"/><use transform="matrix(0.05,0,0,0.05,55.95,0)" xlink:href="#br"/><use transform="matrix(0.05,0,0,0.05,65.95,0)" xlink:href="#bo"/></g><path d="M24-231v-30h32v30H24zM-9 49c24 4 33-6 33-30v-209h32V24c2 40-23 58-65 49V49" id="bK"/><g id="N"><use transform="matrix(0.05,0,0,0.05,0,0)" xlink:href="#bd"/><use transform="matrix(0.05,0,0,0.05,12,0)" xlink:href="#bK"/><use transform="matrix(0.05,0,0,0.05,15.949999999999998,0)" xlink:href="#bc"/><use transform="matrix(0.05,0,0,0.05,25.950000000000003,0)" xlink:href="#bf"/><use transform="matrix(0.05,0,0,0.05,34.95,0)" xlink:href="#bl"/><use transform="matrix(0.05,0,0,0.05,44.95,0)" xlink:href="#bg"/><use transform="matrix(0.05,0,0,0.05,49.95,0)" xlink:href="#bj"/></g><g id="O"><use transform="matrix(0.05,0,0,0.05,0,0)" xlink:href="#bc"/><use transform="matrix(0.05,0,0,0.05,10,0)" xlink:href="#bk"/></g><g id="P"><use transform="matrix(0.05,0,0,0.05,0,0)" xlink:href="#bm"/><use transform="matrix(0.05,0,0,0.05,10,0)" xlink:href="#bc"/></g><g id="Q"><use transform="matrix(0.05,0,0,0.05,0,0)" xlink:href="#bf"/><use transform="matrix(0.05,0,0,0.05,9,0)" xlink:href="#bj"/><use transform="matrix(0.05,0,0,0.05,19,0)" xlink:href="#bm"/><use transform="matrix(0.05,0,0,0.05,29,0)" xlink:href="#bj"/></g><g id="R"><use transform="matrix(0.05,0,0,0.05,0,0)" xlink:href="#bb"/><use transform="matrix(0.05,0,0,0.05,10,0)" xlink:href="#br"/><use transform="matrix(0.05,0,0,0.05,20,0)" xlink:href="#bs"/><use transform="matrix(0.05,0,0,0.05,29,0)" xlink:href="#bc"/><use transform="matrix(0.05,0,0,0.05,39,0)" xlink:href="#bt"/><use transform="matrix(0.05,0,0,0.05,53.95,0)" xlink:href="#br"/><use transform="matrix(0.05,0,0,0.05,63.95,0)" xlink:href="#bo"/></g><g id="S"><use transform="matrix(0.05,0,0,0.05,0,0)" xlink:href="#bv"/><use transform="matrix(0.05,0,0,0.05,12.950000000000001,0)" xlink:href="#br"/><use transform="matrix(0.05,0,0,0.05,22.950000000000003,0)" xlink:href="#bt"/><use transform="matrix(0.05,0,0,0.05,37.900000000000006,0)" xlink:href="#bb"/><use transform="matrix(0.05,0,0,0.05,47.900000000000006,0)" xlink:href="#bx"/><use transform="matrix(0.05,0,0,0.05,53.85,0)" xlink:href="#bl"/><use transform="matrix(0.05,0,0,0.05,63.85,0)" xlink:href="#bc"/><use transform="matrix(0.05,0,0,0.05,73.85000000000001,0)" xlink:href="#bp"/><use transform="matrix(0.05,0,0,0.05,83.85000000000001,0)" xlink:href="#bj"/></g><g id="T"><use transform="matrix(0.05,0,0,0.05,0,0)" xlink:href="#bc"/><use transform="matrix(0.05,0,0,0.05,10,0)" xlink:href="#bq"/><use transform="matrix(0.05,0,0,0.05,19,0)" xlink:href="#bg"/><use transform="matrix(0.05,0,0,0.05,24,0)" xlink:href="#bj"/><use transform="matrix(0.05,0,0,0.05,34,0)" xlink:href="#bm"/><use transform="matrix(0.05,0,0,0.05,44,0)" xlink:href="#br"/></g><g id="U"><use transform="matrix(0.05,0,0,0.05,0,0)" xlink:href="#bm"/><use transform="matrix(0.05,0,0,0.05,10,0)" xlink:href="#bc"/><use transform="matrix(0.05,0,0,0.05,20,0)" xlink:href="#bk"/></g><g id="V"><use transform="matrix(0.05,0,0,0.05,0,0)" xlink:href="#bC"/><use transform="matrix(0.05,0,0,0.05,12,0)" xlink:href="#br"/><use transform="matrix(0.05,0,0,0.05,22,0)" xlink:href="#bs"/><use transform="matrix(0.05,0,0,0.05,31,0)" xlink:href="#bc"/><use transform="matrix(0.05,0,0,0.05,41,0)" xlink:href="#bt"/><use transform="matrix(0.05,0,0,0.05,55.95,0)" xlink:href="#br"/><use transform="matrix(0.05,0,0,0.05,65.95,0)" xlink:href="#bo"/></g><g id="W"><use transform="matrix(0.05,0,0,0.05,0,0)" xlink:href="#bz"/><use transform="matrix(0.05,0,0,0.05,5.95,0)" xlink:href="#bi"/><use transform="matrix(0.05,0,0,0.05,14.949999999999998,0)" xlink:href="#bh"/><use transform="matrix(0.05,0,0,0.05,18.9,0)" xlink:href="#bi"/><use transform="matrix(0.05,0,0,0.05,27.899999999999995,0)" xlink:href="#br"/></g><use transform="matrix(0.05,0,0,0.05,0,0)" xlink:href="#br" id="X"/><g id="Y"><use transform="matrix(0.05,0,0,0.05,0,0)" xlink:href="#bt"/><use transform="matrix(0.05,0,0,0.05,14.950000000000001,0)" xlink:href="#bl"/><use transform="matrix(0.05,0,0,0.05,24.950000000000003,0)" xlink:href="#bc"/><use transform="matrix(0.05,0,0,0.05,34.95,0)" xlink:href="#bx"/><use transform="matrix(0.05,0,0,0.05,40.900000000000006,0)" xlink:href="#bg"/><use transform="matrix(0.05,0,0,0.05,45.900000000000006,0)" xlink:href="#br"/><use transform="matrix(0.05,0,0,0.05,55.900000000000006,0)" xlink:href="#bH"/></g><g id="Z"><use transform="matrix(0.05,0,0,0.05,0,0)" xlink:href="#bk"/><use transform="matrix(0.05,0,0,0.05,3.95,0)" xlink:href="#br"/><use transform="matrix(0.05,0,0,0.05,13.949999999999998,0)" xlink:href="#bq"/></g><g id="aa"><use transform="matrix(0.05,0,0,0.05,0,0)" xlink:href="#bt"/><use transform="matrix(0.05,0,0,0.05,14.950000000000001,0)" xlink:href="#br"/><use transform="matrix(0.05,0,0,0.05,24.950000000000003,0)" xlink:href="#bi"/><use transform="matrix(0.05,0,0,0.05,33.95,0)" xlink:href="#bh"/><use transform="matrix(0.05,0,0,0.05,37.900000000000006,0)" xlink:href="#bt"/><use transform="matrix(0.05,0,0,0.05,52.85,0)" xlink:href="#bh"/><use transform="matrix(0.05,0,0,0.05,56.80000000000001,0)" xlink:href="#bc"/><use transform="matrix(0.05,0,0,0.05,66.80000000000001,0)" xlink:href="#bo"/><use transform="matrix(0.05,0,0,0.05,76.80000000000001,0)" xlink:href="#bg"/><use transform="matrix(0.05,0,0,0.05,81.80000000000001,0)" xlink:href="#br"/><use transform="matrix(0.05,0,0,0.05,91.80000000000001,0)" xlink:href="#bq"/></g><g id="ab"><use transform="matrix(0.05,0,0,0.05,0,0)" xlink:href="#bG"/><use transform="matrix(0.05,0,0,0.05,11,0)" xlink:href="#bc"/></g><g id="ac"><use transform="matrix(0.05,0,0,0.05,0,0)" xlink:href="#bj"/><use transform="matrix(0.05,0,0,0.05,10,0)" xlink:href="#bg"/><use transform="matrix(0.05,0,0,0.05,15,0)" xlink:href="#bx"/><use transform="matrix(0.05,0,0,0.05,20.95,0)" xlink:href="#bh"/><use transform="matrix(0.05,0,0,0.05,24.9,0)" xlink:href="#bp"/><use transform="matrix(0.05,0,0,0.05,34.9,0)" xlink:href="#bl"/><use transform="matrix(0.05,0,0,0.05,44.9,0)" xlink:href="#bg"/><use transform="matrix(0.05,0,0,0.05,49.9,0)" xlink:href="#br"/><use transform="matrix(0.05,0,0,0.05,59.900000000000006,0)" xlink:href="#bq"/></g><g id="ad"><use transform="matrix(0.05,0,0,0.05,0,0)" xlink:href="#bb"/><use transform="matrix(0.05,0,0,0.05,10,0)" xlink:href="#br"/><use transform="matrix(0.05,0,0,0.05,20,0)" xlink:href="#bs"/><use transform="matrix(0.05,0,0,0.05,29,0)" xlink:href="#bc"/><use transform="matrix(0.05,0,0,0.05,39,0)" xlink:href="#bt"/><use transform="matrix(0.05,0,0,0.05,53.95,0)" xlink:href="#br"/><use transform="matrix(0.05,0,0,0.05,63.95,0)" xlink:href="#bo"/></g><g id="ae"><use transform="matrix(0.05,0,0,0.05,0,0)" xlink:href="#bI"/><use transform="matrix(0.05,0,0,0.05,14.950000000000001,0)" xlink:href="#br"/><use transform="matrix(0.05,0,0,0.05,24.950000000000003,0)" xlink:href="#bi"/><use transform="matrix(0.05,0,0,0.05,33.95,0)" xlink:href="#bc"/></g><g id="af"><use transform="matrix(0.05,0,0,0.05,0,0)" xlink:href="#aZ"/><use transform="matrix(0.05,0,0,0.05,9.950000000000001,0)" xlink:href="#ba"/><use transform="matrix(0.05,0,0,0.05,18.950000000000003,0)" xlink:href="#bb"/><use transform="matrix(0.05,0,0,0.05,28.950000000000003,0)" xlink:href="#bc"/></g><g id="ag"><use transform="matrix(0.05,0,0,0.05,0,0)" xlink:href="#bC"/><use transform="matrix(0.05,0,0,0.05,12,0)" xlink:href="#bk"/><use transform="matrix(0.05,0,0,0.05,15.949999999999998,0)" xlink:href="#bj"/><use transform="matrix(0.05,0,0,0.05,25.950000000000003,0)" xlink:href="#ba"/><use transform="matrix(0.05,0,0,0.05,34.95,0)" xlink:href="#bc"/><use transform="matrix(0.05,0,0,0.05,44.95,0)" xlink:href="#bx"/></g><g id="ah"><use transform="matrix(0.05,0,0,0.05,0,0)" xlink:href="#bC"/><use transform="matrix(0.05,0,0,0.05,12,0)" xlink:href="#bc"/><use transform="matrix(0.05,0,0,0.05,22,0)" xlink:href="#bx"/><use transform="matrix(0.05,0,0,0.05,27.950000000000003,0)" xlink:href="#bt"/><use transform="matrix(0.05,0,0,0.05,42.9,0)" xlink:href="#bh"/><use transform="matrix(0.05,0,0,0.05,46.85,0)" xlink:href="#bg"/><use transform="matrix(0.05,0,0,0.05,51.85,0)" xlink:href="#bc"/></g><g id="ai"><use transform="matrix(0.05,0,0,0.05,0,0)" xlink:href="#bj"/><use transform="matrix(0.05,0,0,0.05,10,0)" xlink:href="#by"/><use transform="matrix(0.05,0,0,0.05,20,0)" xlink:href="#bx"/><use transform="matrix(0.05,0,0,0.05,25.950000000000003,0)" xlink:href="#bc"/><use transform="matrix(0.05,0,0,0.05,35.95,0)" xlink:href="#by"/><use transform="matrix(0.05,0,0,0.05,45.95,0)" xlink:href="#bj"/><use transform="matrix(0.05,0,0,0.05,55.95,0)" xlink:href="#bx"/></g><g id="aj"><use transform="matrix(0.05,0,0,0.05,0,0)" xlink:href="#bb"/><use transform="matrix(0.05,0,0,0.05,10,0)" xlink:href="#br"/><use transform="matrix(0.05,0,0,0.05,20,0)" xlink:href="#bs"/><use transform="matrix(0.05,0,0,0.05,29,0)" xlink:href="#bc"/><use transform="matrix(0.05,0,0,0.05,39,0)" xlink:href="#bt"/><use transform="matrix(0.05,0,0,0.05,53.95,0)" xlink:href="#br"/><use transform="matrix(0.05,0,0,0.05,63.95,0)" xlink:href="#bo"/><use transform="matrix(0.05,0,0,0.05,73.95,0)" xlink:href="#bc"/><use transform="matrix(0.05,0,0,0.05,83.95,0)" xlink:href="#bq"/></g><g id="ak"><use transform="matrix(0.05,0,0,0.05,0,0)" xlink:href="#bj"/><use transform="matrix(0.05,0,0,0.05,10,0)" xlink:href="#bk"/></g><g id="al"><use transform="matrix(0.05,0,0,0.05,0,0)" xlink:href="#bc"/><use transform="matrix(0.05,0,0,0.05,10,0)" xlink:href="#bn"/><use transform="matrix(0.05,0,0,0.05,20,0)" xlink:href="#bl"/><use transform="matrix(0.05,0,0,0.05,30,0)" xlink:href="#bh"/><use transform="matrix(0.05,0,0,0.05,33.95,0)" xlink:href="#bb"/><use transform="matrix(0.05,0,0,0.05,43.95,0)" xlink:href="#br"/></g><g id="am"><use transform="matrix(0.05,0,0,0.05,0,0)" xlink:href="#bK"/><use transform="matrix(0.05,0,0,0.05,3.95,0)" xlink:href="#bl"/><use transform="matrix(0.05,0,0,0.05,13.949999999999998,0)" xlink:href="#by"/><use transform="matrix(0.05,0,0,0.05,23.95,0)" xlink:href="#bj"/><use transform="matrix(0.05,0,0,0.05,33.95,0)" xlink:href="#bm"/><use transform="matrix(0.05,0,0,0.05,43.95,0)" xlink:href="#br"/><use transform="matrix(0.05,0,0,0.05,53.95,0)" xlink:href="#bx"/></g><g id="an"><use transform="matrix(0.05,0,0,0.05,0,0)" xlink:href="#bf"/><use transform="matrix(0.05,0,0,0.05,9,0)" xlink:href="#bj"/><use transform="matrix(0.05,0,0,0.05,19,0)" xlink:href="#bt"/><use transform="matrix(0.05,0,0,0.05,33.95,0)" xlink:href="#bp"/><use transform="matrix(0.05,0,0,0.05,43.95,0)" xlink:href="#bh"/><use transform="matrix(0.05,0,0,0.05,47.900000000000006,0)" xlink:href="#bj"/><use transform="matrix(0.05,0,0,0.05,57.900000000000006,0)" xlink:href="#bx"/></g><g id="ao"><use transform="matrix(0.05,0,0,0.05,0,0)" xlink:href="#bb"/><use transform="matrix(0.05,0,0,0.05,10,0)" xlink:href="#br"/><use transform="matrix(0.05,0,0,0.05,20,0)" xlink:href="#bs"/><use transform="matrix(0.05,0,0,0.05,29,0)" xlink:href="#bc"/><use transform="matrix(0.05,0,0,0.05,39,0)" xlink:href="#bt"/><use transform="matrix(0.05,0,0,0.05,53.95,0)" xlink:href="#br"/><use transform="matrix(0.05,0,0,0.05,63.95,0)" xlink:href="#bo"/></g><g id="ap"><use transform="matrix(0.05,0,0,0.05,0,0)" xlink:href="#bc"/><use transform="matrix(0.05,0,0,0.05,10,0)" xlink:href="#bo"/><use transform="matrix(0.05,0,0,0.05,20,0)" xlink:href="#bg"/><use transform="matrix(0.05,0,0,0.05,25,0)" xlink:href="#bx"/><use transform="matrix(0.05,0,0,0.05,30.950000000000003,0)" xlink:href="#bc"/></g><g id="aq"><use transform="matrix(0.05,0,0,0.05,0,0)" xlink:href="#bb"/><use transform="matrix(0.05,0,0,0.05,10,0)" xlink:href="#bj"/><use transform="matrix(0.05,0,0,0.05,20,0)" xlink:href="#bx"/><use transform="matrix(0.05,0,0,0.05,25.950000000000003,0)" xlink:href="#bg"/><use transform="matrix(0.05,0,0,0.05,30.950000000000003,0)" xlink:href="#bh"/><use transform="matrix(0.05,0,0,0.05,34.9,0)" xlink:href="#bm"/><use transform="matrix(0.05,0,0,0.05,44.9,0)" xlink:href="#bj"/></g><path d="M185-189c-5-48-123-54-124 2 14 75 158 14 163 119 3 78-121 87-175 55-17-10-28-26-33-46l33-7c5 56 141 63 141-1 0-78-155-14-162-118-5-82 145-84 179-34 5 7 8 16 11 25" id="bL"/><g id="ar"><use transform="matrix(0.05,0,0,0.05,0,0)" xlink:href="#bL"/><use transform="matrix(0.05,0,0,0.05,12,0)" xlink:href="#bc"/></g><g id="as"><use transform="matrix(0.05,0,0,0.05,0,0)" xlink:href="#bc"/><use transform="matrix(0.05,0,0,0.05,10,0)" xlink:href="#bo"/><use transform="matrix(0.05,0,0,0.05,20,0)" xlink:href="#bf"/><use transform="matrix(0.05,0,0,0.05,29,0)" xlink:href="#bj"/><use transform="matrix(0.05,0,0,0.05,39,0)" xlink:href="#bx"/><use transform="matrix(0.05,0,0,0.05,44.95,0)" xlink:href="#by"/><use transform="matrix(0.05,0,0,0.05,54.95,0)" xlink:href="#bj"/></g><g id="at"><use transform="matrix(0.05,0,0,0.05,0,0)" xlink:href="#bk"/><use transform="matrix(0.05,0,0,0.05,3.95,0)" xlink:href="#bj"/></g><g id="au"><use transform="matrix(0.05,0,0,0.05,0,0)" xlink:href="#be"/><use transform="matrix(0.05,0,0,0.05,5,0)" xlink:href="#bl"/><use transform="matrix(0.05,0,0,0.05,15,0)" xlink:href="#bo"/><use transform="matrix(0.05,0,0,0.05,25,0)" xlink:href="#bf"/><use transform="matrix(0.05,0,0,0.05,34,0)" xlink:href="#bh"/><use transform="matrix(0.05,0,0,0.05,37.95,0)" xlink:href="#br"/><use transform="matrix(0.05,0,0,0.05,47.95,0)" xlink:href="#bo"/><use transform="matrix(0.05,0,0,0.05,57.95,0)" xlink:href="#bj"/><use transform="matrix(0.05,0,0,0.05,67.95,0)" xlink:href="#bk"/><use transform="matrix(0.05,0,0,0.05,71.9,0)" xlink:href="#bh"/><use transform="matrix(0.05,0,0,0.05,75.85000000000001,0)" xlink:href="#bm"/><use transform="matrix(0.05,0,0,0.05,85.85000000000001,0)" xlink:href="#bj"/><use transform="matrix(0.05,0,0,0.05,95.85000000000001,0)" xlink:href="#bm"/></g><g id="av"><use transform="matrix(0.05,0,0,0.05,0,0)" xlink:href="#bm"/><use transform="matrix(0.05,0,0,0.05,10,0)" xlink:href="#bc"/></g><g id="aw"><use transform="matrix(0.05,0,0,0.05,0,0)" xlink:href="#bj"/><use transform="matrix(0.05,0,0,0.05,10,0)" xlink:href="#bg"/><use transform="matrix(0.05,0,0,0.05,15,0)" xlink:href="#bj"/><use transform="matrix(0.05,0,0,0.05,25,0)" xlink:href="#bf"/><use transform="matrix(0.05,0,0,0.05,34,0)" xlink:href="#bj"/><use transform="matrix(0.05,0,0,0.05,44,0)" xlink:href="#bx"/></g><g id="ax"><use transform="matrix(0.05,0,0,0.05,0,0)" xlink:href="#bc"/><use transform="matrix(0.05,0,0,0.05,10,0)" xlink:href="#bo"/></g><g id="ay"><use transform="matrix(0.05,0,0,0.05,0,0)" xlink:href="#bd"/><use transform="matrix(0.05,0,0,0.05,12,0)" xlink:href="#bi"/><use transform="matrix(0.05,0,0,0.05,21,0)" xlink:href="#bj"/><use transform="matrix(0.05,0,0,0.05,31,0)" xlink:href="#bk"/><use transform="matrix(0.05,0,0,0.05,34.95,0)" xlink:href="#bl"/><use transform="matrix(0.05,0,0,0.05,44.95,0)" xlink:href="#bj"/></g><g id="az"><use transform="matrix(0.05,0,0,0.05,0,0)" xlink:href="#bq"/><use transform="matrix(0.05,0,0,0.05,9,0)" xlink:href="#bh"/></g><g id="aA"><use transform="matrix(0.05,0,0,0.05,0,0)" xlink:href="#bK"/><use transform="matrix(0.05,0,0,0.05,3.95,0)" xlink:href="#bl"/><use transform="matrix(0.05,0,0,0.05,13.949999999999998,0)" xlink:href="#by"/><use transform="matrix(0.05,0,0,0.05,23.95,0)" xlink:href="#bj"/><use transform="matrix(0.05,0,0,0.05,33.95,0)" xlink:href="#bm"/><use transform="matrix(0.05,0,0,0.05,43.95,0)" xlink:href="#br"/><use transform="matrix(0.05,0,0,0.05,53.95,0)" xlink:href="#bx"/></g><path d="M100-194c62-1 85 37 85 99 1 63-27 99-86 99S16-35 15-95c0-66 28-99 85-99zM99-20c44 1 53-31 53-75 0-43-8-75-51-75s-53 32-53 75 10 74 51 75zM76-211c8-23 27-35 38-54h36v5l-58 49H76" id="bM"/><g id="aB"><use transform="matrix(0.05,0,0,0.05,0,0)" xlink:href="#bb"/><use transform="matrix(0.05,0,0,0.05,10,0)" xlink:href="#bc"/><use transform="matrix(0.05,0,0,0.05,20,0)" xlink:href="#bx"/><use transform="matrix(0.05,0,0,0.05,25.950000000000003,0)" xlink:href="#bm"/><use transform="matrix(0.05,0,0,0.05,35.95,0)" xlink:href="#bh"/><use transform="matrix(0.05,0,0,0.05,39.900000000000006,0)" xlink:href="#bM"/></g><g id="aC"><use transform="matrix(0.05,0,0,0.05,0,0)" xlink:href="#bG"/><use transform="matrix(0.05,0,0,0.05,11,0)" xlink:href="#bc"/></g><g id="aD"><use transform="matrix(0.05,0,0,0.05,0,0)" xlink:href="#bK"/><use transform="matrix(0.05,0,0,0.05,3.95,0)" xlink:href="#bl"/><use transform="matrix(0.05,0,0,0.05,13.949999999999998,0)" xlink:href="#by"/><use transform="matrix(0.05,0,0,0.05,23.95,0)" xlink:href="#bj"/><use transform="matrix(0.05,0,0,0.05,33.95,0)" xlink:href="#bm"/><use transform="matrix(0.05,0,0,0.05,43.95,0)" xlink:href="#br"/><use transform="matrix(0.05,0,0,0.05,53.95,0)" xlink:href="#bx"/></g><g id="aE"><use transform="matrix(0.05,0,0,0.05,0,0)" xlink:href="#bC"/><use transform="matrix(0.05,0,0,0.05,12,0)" xlink:href="#br"/><use transform="matrix(0.05,0,0,0.05,22,0)" xlink:href="#bs"/><use transform="matrix(0.05,0,0,0.05,31,0)" xlink:href="#bc"/><use transform="matrix(0.05,0,0,0.05,41,0)" xlink:href="#bt"/><use transform="matrix(0.05,0,0,0.05,55.95,0)" xlink:href="#br"/><use transform="matrix(0.05,0,0,0.05,65.95,0)" xlink:href="#bo"/></g><path d="M143 4C61 4 22-44 18-125c-5-107 100-154 193-111 17 8 29 25 37 43l-32 9c-13-25-37-40-76-40-61 0-88 39-88 99 0 61 29 100 91 101 35 0 62-11 79-27v-45h-74v-28h105v86C228-13 192 4 143 4" id="bN"/><g id="aF"><use transform="matrix(0.05,0,0,0.05,0,0)" xlink:href="#bN"/><use transform="matrix(0.05,0,0,0.05,14,0)" xlink:href="#bj"/><use transform="matrix(0.05,0,0,0.05,24,0)" xlink:href="#bt"/><use transform="matrix(0.05,0,0,0.05,38.95,0)" xlink:href="#bc"/></g><g id="aG"><use transform="matrix(0.05,0,0,0.05,0,0)" xlink:href="#bF"/><use transform="matrix(0.05,0,0,0.05,12,0)" xlink:href="#by"/><use transform="matrix(0.05,0,0,0.05,22,0)" xlink:href="#bx"/><use transform="matrix(0.05,0,0,0.05,27.950000000000003,0)" xlink:href="#bc"/><use transform="matrix(0.05,0,0,0.05,37.95,0)" xlink:href="#by"/><use transform="matrix(0.05,0,0,0.05,47.95,0)" xlink:href="#bj"/></g><g id="aH"><use transform="matrix(0.05,0,0,0.05,0,0)" xlink:href="#bK"/><use transform="matrix(0.05,0,0,0.05,3.95,0)" xlink:href="#bl"/><use transform="matrix(0.05,0,0,0.05,13.949999999999998,0)" xlink:href="#by"/><use transform="matrix(0.05,0,0,0.05,23.95,0)" xlink:href="#bj"/><use transform="matrix(0.05,0,0,0.05,33.95,0)" xlink:href="#bm"/><use transform="matrix(0.05,0,0,0.05,43.95,0)" xlink:href="#br"/><use transform="matrix(0.05,0,0,0.05,53.95,0)" xlink:href="#bx"/><use transform="matrix(0.05,0,0,0.05,59.900000000000006,0)" xlink:href="#bc"/><use transform="matrix(0.05,0,0,0.05,69.9,0)" xlink:href="#bq"/></g><use transform="matrix(0.05,0,0,0.05,0,0)" xlink:href="#bj" id="aI"/><g id="aJ"><use transform="matrix(0.05,0,0,0.05,0,0)" xlink:href="#bv"/><use transform="matrix(0.05,0,0,0.05,12.950000000000001,0)" xlink:href="#bj"/><use transform="matrix(0.05,0,0,0.05,22.950000000000003,0)" xlink:href="#bt"/><use transform="matrix(0.05,0,0,0.05,37.900000000000006,0)" xlink:href="#bp"/><use transform="matrix(0.05,0,0,0.05,47.900000000000006,0)" xlink:href="#bh"/><use transform="matrix(0.05,0,0,0.05,51.85,0)" xlink:href="#bj"/></g><g id="aK"><use transform="matrix(0.05,0,0,0.05,0,0)" xlink:href="#bg"/><use transform="matrix(0.05,0,0,0.05,5,0)" xlink:href="#bl"/><use transform="matrix(0.05,0,0,0.05,15,0)" xlink:href="#bx"/><use transform="matrix(0.05,0,0,0.05,20.95,0)" xlink:href="#bo"/><use transform="matrix(0.05,0,0,0.05,30.950000000000003,0)" xlink:href="#br"/></g><path d="M9 0v-24l116-142H16v-24h144v24L44-24h123V0H9" id="bO"/><g id="aL"><use transform="matrix(0.05,0,0,0.05,0,0)" xlink:href="#bv"/><use transform="matrix(0.05,0,0,0.05,12.950000000000001,0)" xlink:href="#br"/><use transform="matrix(0.05,0,0,0.05,22.950000000000003,0)" xlink:href="#bt"/><use transform="matrix(0.05,0,0,0.05,37.900000000000006,0)" xlink:href="#bh"/><use transform="matrix(0.05,0,0,0.05,41.85000000000001,0)" xlink:href="#bc"/><use transform="matrix(0.05,0,0,0.05,51.85,0)" xlink:href="#bo"/><use transform="matrix(0.05,0,0,0.05,61.85,0)" xlink:href="#bO"/><use transform="matrix(0.05,0,0,0.05,70.85000000000001,0)" xlink:href="#bj"/></g><g id="aM"><use transform="matrix(0.05,0,0,0.05,0,0)" xlink:href="#bw"/><use transform="matrix(0.05,0,0,0.05,12.950000000000001,0)" xlink:href="#bc"/><use transform="matrix(0.05,0,0,0.05,22.950000000000003,0)" xlink:href="#bh"/><use transform="matrix(0.05,0,0,0.05,26.900000000000002,0)" xlink:href="#bo"/><use transform="matrix(0.05,0,0,0.05,36.900000000000006,0)" xlink:href="#bh"/><use transform="matrix(0.05,0,0,0.05,40.85000000000001,0)" xlink:href="#bf"/><use transform="matrix(0.05,0,0,0.05,49.85000000000001,0)" xlink:href="#bh"/><use transform="matrix(0.05,0,0,0.05,53.80000000000001,0)" xlink:href="#bj"/></g><path d="M140-251c81 0 123 46 123 126C263-46 219 4 140 4 59 4 17-45 17-125s42-126 123-126zm0 227c63 0 89-41 89-101s-29-99-89-99c-61 0-89 39-89 99S79-25 140-24" id="bP"/><g id="aN"><use transform="matrix(0.05,0,0,0.05,0,0)" xlink:href="#bP"/><use transform="matrix(0.05,0,0,0.05,14,0)" xlink:href="#bp"/><use transform="matrix(0.05,0,0,0.05,24,0)" xlink:href="#bg"/><use transform="matrix(0.05,0,0,0.05,29,0)" xlink:href="#bh"/><use transform="matrix(0.05,0,0,0.05,32.95,0)" xlink:href="#bc"/><use transform="matrix(0.05,0,0,0.05,42.95,0)" xlink:href="#bo"/><use transform="matrix(0.05,0,0,0.05,52.95,0)" xlink:href="#bc"/></g><g id="aO"><use transform="matrix(0.05,0,0,0.05,0,0)" xlink:href="#by"/><use transform="matrix(0.05,0,0,0.05,10,0)" xlink:href="#bj"/><use transform="matrix(0.05,0,0,0.05,20,0)" xlink:href="#bo"/><use transform="matrix(0.05,0,0,0.05,30,0)" xlink:href="#bj"/><use transform="matrix(0.05,0,0,0.05,40,0)" xlink:href="#bm"/><use transform="matrix(0.05,0,0,0.05,50,0)" xlink:href="#br"/><use transform="matrix(0.05,0,0,0.05,60,0)" xlink:href="#bx"/></g><g id="aP"><use transform="matrix(0.05,0,0,0.05,0,0)" xlink:href="#bn"/><use transform="matrix(0.05,0,0,0.05,10,0)" xlink:href="#bl"/><use transform="matrix(0.05,0,0,0.05,20,0)" xlink:href="#bh"/><use transform="matrix(0.05,0,0,0.05,23.95,0)" xlink:href="#bc"/><use transform="matrix(0.05,0,0,0.05,33.95,0)" xlink:href="#bo"/></g><g id="aQ"><use transform="matrix(0.05,0,0,0.05,0,0)" xlink:href="#bc"/><use transform="matrix(0.05,0,0,0.05,10,0)" xlink:href="#bq"/></g><g id="aR"><use transform="matrix(0.05,0,0,0.05,0,0)" xlink:href="#bg"/><use transform="matrix(0.05,0,0,0.05,5,0)" xlink:href="#bl"/><use transform="matrix(0.05,0,0,0.05,15,0)" xlink:href="#bx"/><use transform="matrix(0.05,0,0,0.05,20.95,0)" xlink:href="#bo"/><use transform="matrix(0.05,0,0,0.05,30.950000000000003,0)" xlink:href="#br"/></g><g id="aS"><use transform="matrix(0.05,0,0,0.05,0,0)" xlink:href="#bd"/><use transform="matrix(0.05,0,0,0.05,12,0)" xlink:href="#bk"/><use transform="matrix(0.05,0,0,0.05,15.949999999999998,0)" xlink:href="#bh"/><use transform="matrix(0.05,0,0,0.05,19.9,0)" xlink:href="#by"/><use transform="matrix(0.05,0,0,0.05,29.899999999999995,0)" xlink:href="#bc"/></g><g id="aT"><use transform="matrix(0.05,0,0,0.05,0,0)" xlink:href="#bl"/><use transform="matrix(0.05,0,0,0.05,10,0)" xlink:href="#bo"/><use transform="matrix(0.05,0,0,0.05,20,0)" xlink:href="#br"/></g><g id="aU"><use transform="matrix(0.05,0,0,0.05,0,0)" xlink:href="#bK"/><use transform="matrix(0.05,0,0,0.05,3.95,0)" xlink:href="#bl"/><use transform="matrix(0.05,0,0,0.05,13.949999999999998,0)" xlink:href="#by"/><use transform="matrix(0.05,0,0,0.05,23.95,0)" xlink:href="#bj"/><use transform="matrix(0.05,0,0,0.05,33.95,0)" xlink:href="#bm"/><use transform="matrix(0.05,0,0,0.05,43.95,0)" xlink:href="#br"/><use transform="matrix(0.05,0,0,0.05,53.95,0)" xlink:href="#bx"/><use transform="matrix(0.05,0,0,0.05,59.900000000000006,0)" xlink:href="#bc"/><use transform="matrix(0.05,0,0,0.05,69.9,0)" xlink:href="#bq"/></g><g id="aV"><use transform="matrix(0.05,0,0,0.05,0,0)" xlink:href="#bf"/><use transform="matrix(0.05,0,0,0.05,9,0)" xlink:href="#br"/><use transform="matrix(0.05,0,0,0.05,19,0)" xlink:href="#bt"/><use transform="matrix(0.05,0,0,0.05,33.95,0)" xlink:href="#bc"/><use transform="matrix(0.05,0,0,0.05,43.95,0)" xlink:href="#bo"/><use transform="matrix(0.05,0,0,0.05,53.95,0)" xlink:href="#bO"/><use transform="matrix(0.05,0,0,0.05,62.95,0)" xlink:href="#bj"/><use transform="matrix(0.05,0,0,0.05,72.95,0)" xlink:href="#bx"/></g><g id="aW"><use transform="matrix(0.05,0,0,0.05,0,0)" xlink:href="#bN"/><use transform="matrix(0.05,0,0,0.05,14,0)" xlink:href="#bj"/><use transform="matrix(0.05,0,0,0.05,24,0)" xlink:href="#bt"/><use transform="matrix(0.05,0,0,0.05,38.95,0)" xlink:href="#bc"/><use transform="matrix(0.05,0,0,0.05,48.95,0)" xlink:href="#bv"/><use transform="matrix(0.05,0,0,0.05,61.900000000000006,0)" xlink:href="#br"/><use transform="matrix(0.05,0,0,0.05,71.9,0)" xlink:href="#bt"/><use transform="matrix(0.05,0,0,0.05,86.85000000000001,0)" xlink:href="#bt"/><use transform="matrix(0.05,0,0,0.05,101.80000000000001,0)" xlink:href="#bj"/><use transform="matrix(0.05,0,0,0.05,111.80000000000001,0)" xlink:href="#bo"/><use transform="matrix(0.05,0,0,0.05,121.80000000000001,0)" xlink:href="#bm"/><use transform="matrix(0.05,0,0,0.05,131.8,0)" xlink:href="#bq"/></g><g id="aX"><use transform="matrix(0.05,0,0,0.05,0,0)" xlink:href="#bd"/><use transform="matrix(0.05,0,0,0.05,12,0)" xlink:href="#bK"/><use transform="matrix(0.05,0,0,0.05,15.949999999999998,0)" xlink:href="#bc"/><use transform="matrix(0.05,0,0,0.05,25.950000000000003,0)" xlink:href="#bf"/><use transform="matrix(0.05,0,0,0.05,34.95,0)" xlink:href="#bl"/><use transform="matrix(0.05,0,0,0.05,44.95,0)" xlink:href="#bg"/><use transform="matrix(0.05,0,0,0.05,49.95,0)" xlink:href="#bj"/></g><g id="aY"><use transform="matrix(0.05,0,0,0.05,0,0)" xlink:href="#bK"/><use transform="matrix(0.05,0,0,0.05,3.95,0)" xlink:href="#bl"/><use transform="matrix(0.05,0,0,0.05,13.949999999999998,0)" xlink:href="#bc"/><use transform="matrix(0.05,0,0,0.05,23.95,0)" xlink:href="#by"/><use transform="matrix(0.05,0,0,0.05,33.95,0)" xlink:href="#br"/></g></defs></g></svg>